<?xml version="1.0" standalone="no"?>
<!DOCTYPE svg PUBLIC "-//W3C//DTD SVG 20010904//EN"
 "http://www.w3.org/TR/2001/REC-SVG-20010904/DTD/svg10.dtd">
<svg version="1.0" xmlns="http://www.w3.org/2000/svg"
 width="3021.000000pt" height="3021.000000pt" viewBox="0 0 3021.000000 3021.000000"
 preserveAspectRatio="xMidYMid meet">
<metadata>
Created by potrace 1.14, written by Peter Selinger 2001-2017
</metadata>
<g transform="translate(0.000000,3021.000000) scale(0.100000,-0.100000)"
fill="#000000" stroke="none">
<path d="M0 23897 l0 -1133 138 -32 c170 -40 364 -80 417 -87 22 -2 60 -7 85
-10 104 -12 177 -23 200 -30 8 -3 31 -7 50 -9 57 -7 401 -80 605 -127 129 -30
190 -42 290 -59 33 -5 71 -12 85 -14 14 -3 59 -10 100 -16 70 -10 91 -13 173
-25 17 -2 91 -13 162 -24 162 -25 202 -31 240 -37 17 -2 41 -6 55 -9 14 -2 43
-7 65 -10 38 -5 332 -55 650 -110 83 -14 182 -32 220 -40 39 -7 90 -16 115
-20 25 -3 59 -10 75 -15 17 -5 46 -11 65 -13 19 -3 80 -14 135 -25 55 -11 127
-25 160 -31 33 -6 71 -14 85 -17 27 -5 45 -9 130 -25 30 -6 64 -12 75 -14 11
-2 63 -11 115 -20 52 -9 106 -18 119 -20 13 -2 45 -7 70 -11 25 -4 55 -8 66
-10 11 -3 52 -9 92 -15 39 -5 80 -12 91 -14 11 -2 42 -7 69 -11 26 -3 57 -8
68 -10 32 -6 77 -13 120 -19 22 -3 67 -10 100 -15 33 -5 78 -12 100 -15 22 -4
51 -8 65 -10 67 -11 440 -67 475 -71 22 -3 65 -9 95 -14 30 -6 71 -12 90 -14
19 -3 80 -11 135 -20 55 -8 122 -18 149 -21 27 -3 52 -8 55 -9 3 -2 33 -6 66
-10 33 -3 71 -8 85 -10 39 -7 170 -25 220 -31 41 -5 113 -15 210 -29 98 -15
259 -38 290 -42 19 -2 49 -6 65 -9 17 -2 53 -7 80 -10 28 -3 61 -8 75 -10 51
-9 88 -14 210 -30 69 -9 136 -18 150 -20 14 -2 48 -6 75 -9 28 -4 61 -8 75
-11 14 -2 48 -7 75 -10 28 -3 61 -8 75 -10 14 -2 48 -6 75 -10 28 -3 95 -12
150 -20 105 -15 168 -20 350 -31 61 -3 118 -8 129 -10 10 -2 44 -6 75 -9 31
-3 67 -8 81 -10 14 -3 43 -7 65 -10 124 -18 287 -50 330 -66 55 -19 84 -25
190 -34 39 -4 81 -8 95 -10 14 -2 57 -6 95 -10 39 -3 84 -8 100 -10 17 -2 57
-7 90 -10 33 -3 77 -8 98 -10 92 -12 116 -14 177 -20 36 -3 81 -8 100 -10 19
-2 64 -7 100 -10 36 -3 79 -8 95 -10 17 -2 61 -7 98 -10 37 -4 76 -8 85 -10 9
-1 53 -6 97 -9 44 -4 87 -9 95 -11 8 -2 47 -7 85 -10 92 -8 152 -14 195 -20
19 -3 59 -7 88 -10 28 -3 76 -8 105 -11 51 -6 65 -7 176 -19 30 -3 68 -8 85
-10 17 -2 58 -7 91 -10 33 -3 74 -8 90 -10 101 -13 126 -15 185 -21 36 -3 72
-7 80 -9 8 -2 51 -7 95 -10 44 -3 98 -8 120 -10 71 -6 199 -17 230 -20 36 -3
230 -25 265 -30 14 -2 45 -6 70 -9 99 -13 126 -17 140 -21 8 -2 42 -7 75 -11
33 -3 63 -8 66 -10 3 -1 28 -6 55 -9 27 -4 65 -10 84 -15 19 -5 53 -11 75 -15
37 -5 244 -40 290 -49 83 -15 257 -42 330 -51 28 -4 64 -8 80 -10 61 -8 257
-27 405 -40 65 -6 114 -11 193 -20 23 -3 65 -7 92 -10 28 -3 86 -9 130 -15 44
-5 105 -12 135 -15 30 -3 62 -8 70 -10 8 -2 40 -7 70 -10 30 -3 66 -8 80 -10
14 -2 88 -13 165 -25 77 -11 156 -23 175 -26 19 -3 116 -18 215 -34 204 -32
251 -39 315 -46 25 -2 64 -6 88 -9 23 -3 63 -7 90 -10 26 -3 65 -7 87 -10 22
-3 63 -7 90 -10 28 -3 66 -7 85 -10 19 -3 62 -7 95 -11 33 -3 76 -8 95 -11 19
-3 260 -7 535 -9 428 -4 508 -7 555 -21 48 -14 112 -17 480 -16 395 1 1234 12
1360 18 65 3 347 14 550 20 80 3 172 7 205 9 33 3 101 8 150 11 50 4 103 8
119 10 16 2 65 7 109 10 44 4 88 8 98 10 18 4 69 9 194 20 39 4 81 8 95 10 31
4 105 13 185 20 33 3 74 8 90 10 17 2 59 7 95 10 36 3 81 8 100 10 19 3 67 7
105 10 39 3 81 8 95 10 14 2 59 6 100 10 41 4 86 8 100 10 24 4 58 7 180 20
30 3 71 8 90 10 58 6 132 14 190 20 30 3 71 8 90 10 19 3 58 7 85 10 28 3 59
7 70 9 11 2 47 7 80 10 33 4 71 8 85 11 14 2 50 7 81 10 31 3 67 8 80 10 13 3
58 8 99 12 100 11 1807 10 1985 0 77 -4 181 -10 230 -12 50 -3 131 -7 180 -10
85 -5 134 -8 320 -20 44 -3 123 -7 175 -10 52 -3 120 -7 150 -10 30 -2 109 -7
175 -10 66 -3 143 -8 170 -10 227 -19 443 -22 650 -12 72 4 312 9 535 12 386
4 548 9 670 21 78 7 168 14 395 29 187 13 227 16 370 30 28 3 77 7 110 10 73
7 108 11 260 35 162 25 191 31 375 71 80 17 157 34 173 36 15 3 27 10 28 17 0
6 3 962 5 2124 l4 2112 -15105 0 -15105 0 0 -1133z"/>
<path d="M19 21973 c-1 -5 -4 -24 -6 -43 -2 -19 -7 -3794 -9 -8387 l-6 -8353
15106 0 15106 0 0 7520 0 7520 -36 -6 c-20 -3 -46 -8 -58 -10 -58 -11 -437
-73 -481 -78 -27 -3 -66 -8 -85 -11 -19 -2 -56 -7 -82 -10 -27 -3 -67 -7 -90
-10 -48 -5 -118 -11 -228 -20 -41 -3 -100 -7 -130 -10 -30 -3 -98 -7 -150 -10
-52 -3 -129 -7 -170 -10 -104 -8 -185 -12 -330 -20 -69 -4 -143 -8 -165 -10
-274 -23 -1435 -23 -2110 0 -66 2 -199 7 -295 10 -96 3 -218 8 -270 10 -283
13 -355 16 -455 20 -60 3 -137 7 -170 10 -33 2 -112 7 -175 10 -63 4 -135 8
-160 10 -25 2 -94 6 -155 10 -60 4 -128 9 -150 10 -22 2 -78 6 -125 9 -47 4
-98 8 -115 10 -142 19 -699 28 -816 14 -39 -5 -171 -29 -293 -53 -121 -24
-237 -47 -256 -50 -30 -5 -170 -30 -221 -40 -9 -2 -34 -6 -55 -9 -22 -3 -50
-8 -64 -11 -14 -3 -41 -7 -60 -9 -54 -7 -113 -16 -138 -22 -13 -3 -43 -7 -65
-10 -23 -3 -53 -7 -67 -10 -14 -3 -41 -8 -60 -10 -19 -3 -44 -6 -55 -8 -19 -4
-52 -9 -120 -21 -16 -3 -46 -8 -65 -10 -19 -3 -66 -10 -105 -16 -84 -13 -107
-16 -165 -24 -25 -3 -56 -8 -70 -10 -14 -2 -50 -6 -80 -10 -30 -3 -66 -8 -80
-10 -34 -6 -144 -20 -235 -30 -27 -2 -70 -7 -95 -10 -136 -16 -205 -23 -310
-30 -47 -3 -110 -8 -140 -10 -30 -3 -89 -7 -130 -10 -41 -3 -95 -8 -120 -10
-25 -3 -88 -7 -140 -10 -52 -4 -114 -8 -137 -10 -23 -2 -83 -7 -135 -10 -119
-7 -236 -14 -318 -20 -36 -2 -110 -7 -165 -10 -55 -3 -129 -8 -165 -10 -60 -3
-150 -8 -390 -20 -52 -3 -147 -8 -210 -10 -63 -3 -144 -7 -180 -10 -102 -7
-362 -17 -510 -21 -212 -5 -1666 -5 -1750 0 -184 11 -263 18 -370 30 -30 4
-73 9 -95 11 -62 7 -138 16 -165 20 -14 2 -45 7 -70 10 -25 3 -70 10 -100 15
-30 5 -71 12 -90 15 -19 3 -69 12 -110 20 -41 8 -88 16 -105 19 -52 9 -149 26
-175 31 -14 3 -40 8 -59 11 -18 3 -42 7 -51 9 -10 2 -40 7 -67 11 -26 3 -57 8
-68 10 -28 6 -253 44 -290 50 -16 2 -41 6 -55 9 -14 2 -45 7 -70 10 -25 3 -52
8 -60 10 -13 3 -55 10 -125 20 -11 2 -33 6 -50 9 -16 3 -59 10 -95 16 -36 5
-76 12 -90 14 -14 3 -59 10 -100 16 -41 6 -86 13 -100 16 -27 4 -293 42 -350
50 -19 3 -46 7 -60 9 -14 2 -45 7 -70 10 -25 3 -56 8 -70 10 -14 3 -45 7 -70
10 -25 3 -106 15 -180 25 -74 11 -153 22 -175 25 -50 6 -122 16 -155 21 -57 8
-100 14 -180 24 -47 6 -100 13 -118 15 -18 3 -54 8 -80 11 -26 3 -58 7 -72 9
-22 4 -83 11 -160 20 -14 1 -43 5 -65 9 -22 3 -65 8 -95 11 -30 3 -66 8 -80
10 -30 4 -124 16 -160 20 -36 4 -131 16 -160 20 -14 2 -47 7 -75 10 -61 7
-117 13 -215 25 -41 5 -100 12 -130 15 -30 3 -71 8 -90 10 -19 2 -60 7 -90 10
-30 3 -71 8 -90 10 -52 7 -127 14 -195 20 -33 3 -76 8 -95 10 -19 3 -64 7
-100 10 -36 3 -81 7 -100 9 -19 3 -73 8 -120 11 -47 4 -101 8 -120 10 -52 5
-146 14 -220 20 -36 3 -76 7 -90 10 -24 4 -62 8 -195 20 -33 3 -76 8 -95 10
-19 2 -82 9 -140 15 -58 6 -121 13 -140 15 -19 2 -62 7 -95 10 -33 4 -76 9
-95 11 -19 2 -64 7 -100 10 -72 7 -91 9 -170 19 -30 3 -73 8 -95 10 -22 3 -62
7 -90 10 -27 3 -72 8 -100 11 -27 2 -66 7 -85 9 -52 7 -109 13 -170 20 -30 3
-71 7 -90 10 -19 3 -57 7 -85 10 -27 3 -66 7 -85 10 -19 2 -60 7 -90 10 -30 3
-72 7 -92 10 -20 3 -56 7 -80 9 -24 3 -65 8 -93 11 -81 10 -127 15 -175 20
-25 3 -61 8 -80 11 -19 3 -55 8 -80 10 -25 2 -63 6 -85 9 -74 12 -90 14 -140
20 -27 3 -67 7 -87 10 -21 3 -55 7 -75 10 -21 2 -71 9 -113 15 -41 5 -97 12
-125 15 -27 3 -61 8 -75 10 -14 3 -43 7 -65 10 -124 17 -309 44 -330 49 -11 2
-45 7 -75 11 -54 6 -199 31 -355 60 -44 8 -98 17 -120 20 -22 4 -47 8 -55 10
-8 2 -31 7 -50 10 -19 3 -82 14 -140 25 -58 10 -121 21 -140 24 -19 3 -46 8
-60 11 -26 5 -241 42 -295 51 -16 2 -64 11 -105 19 -41 8 -93 17 -115 21 -52
7 -258 42 -287 48 -13 3 -39 8 -58 11 -19 2 -46 7 -60 9 -14 3 -133 24 -265
46 -249 43 -671 117 -715 125 -14 3 -41 8 -60 10 -19 3 -55 10 -80 15 -25 5
-58 11 -75 14 -16 3 -124 21 -238 41 -115 20 -250 42 -300 50 -78 12 -144 24
-397 71 -14 3 -56 11 -95 19 -38 8 -81 16 -95 19 -14 2 -70 14 -125 26 -117
25 -379 79 -415 86 -14 3 -32 7 -40 9 -8 3 -33 7 -55 11 -22 3 -43 8 -47 10
-3 2 -48 13 -100 24 -51 11 -151 33 -223 50 -71 17 -139 32 -150 34 -11 2 -51
12 -90 21 -38 9 -77 18 -86 20 -8 2 -69 17 -134 34 -128 34 -134 35 -136 24z
m8046 -4338 c28 -2 100 -6 160 -9 61 -3 144 -9 185 -12 41 -4 86 -8 100 -9 14
-1 41 -3 61 -3 49 -3 68 -20 74 -67 31 -259 32 -261 135 -256 19 1 58 7 85 13
29 7 125 12 225 12 171 0 177 -1 264 -32 49 -18 95 -32 103 -32 7 0 30 -7 51
-17 20 -9 52 -18 71 -20 19 -3 84 -31 145 -63 110 -58 211 -99 336 -138 100
-31 149 -35 199 -18 61 22 89 20 127 -9 56 -43 101 -53 354 -80 36 -4 79 -9
95 -11 84 -9 423 -21 740 -25 l190 -3 17 50 c9 28 19 91 23 140 8 118 14 154
26 154 17 0 102 -43 213 -107 60 -35 111 -62 113 -59 7 6 -29 64 -60 97 -26
27 -47 62 -47 77 0 10 24 2 175 -58 190 -76 478 -170 520 -170 11 0 -24 43
-96 115 -155 157 -173 189 -131 237 13 15 13 20 1 35 -13 15 -12 15 6 6 15 -9
22 -8 31 5 12 16 50 10 39 -8 -7 -12 128 -1 136 12 6 9 394 4 434 -5 11 -3 39
-8 62 -12 24 -4 45 -11 49 -16 3 -5 21 -9 40 -9 19 0 34 -3 34 -7 0 -5 23 -8
50 -8 39 0 51 -3 55 -17 3 -9 19 -20 36 -23 20 -5 39 -21 60 -53 34 -53 88
-97 102 -83 5 5 11 26 13 46 5 56 14 80 25 64 8 -14 9 -13 23 34 3 11 17 12
67 5 37 -5 67 -4 72 1 5 5 20 3 35 -5 16 -8 40 -11 58 -8 18 3 46 -1 70 -11
21 -9 47 -18 56 -20 27 -6 86 -56 113 -97 23 -34 60 -57 72 -44 3 3 7 18 9 33
1 16 2 32 3 36 2 14 85 -3 103 -21 9 -9 42 -69 74 -132 90 -181 107 -203 172
-238 31 -16 121 -51 199 -77 79 -26 146 -51 149 -56 5 -9 -96 -222 -195 -409
-22 -41 -63 -124 -91 -185 -28 -60 -60 -128 -70 -150 -46 -94 -100 -214 -100
-220 0 -25 -223 -517 -250 -550 -4 -5 -34 -55 -66 -110 -31 -55 -82 -143 -112
-195 -86 -149 -94 -162 -118 -206 -12 -22 -34 -59 -48 -82 -14 -23 -26 -43
-26 -46 0 -2 -20 -39 -43 -82 -72 -130 -151 -283 -315 -604 -85 -168 -216
-426 -292 -575 -168 -331 -271 -522 -314 -583 -18 -26 -76 -119 -130 -207 -54
-88 -114 -184 -132 -212 -19 -29 -34 -55 -34 -59 0 -3 -16 -29 -35 -58 -19
-29 -35 -58 -35 -65 0 -6 -3 -11 -7 -11 -5 0 -13 -10 -19 -23 -12 -24 -149
-250 -217 -357 -42 -65 -86 -125 -142 -191 -16 -19 -52 -61 -80 -94 -73 -85
-327 -397 -350 -429 -11 -16 -27 -36 -35 -45 -36 -38 -368 -476 -485 -640
-218 -305 -368 -490 -429 -530 -27 -18 -30 -18 -46 -3 -10 10 -28 37 -40 62
-51 101 -170 291 -207 328 -42 43 -68 144 -138 522 -18 102 -36 196 -39 210
-3 14 -8 39 -11 55 -3 17 -11 50 -16 75 -6 25 -12 52 -14 61 -4 21 -121 462
-147 554 -11 39 -26 95 -35 125 -48 182 -162 534 -220 680 -144 368 -280 596
-542 910 -171 205 -336 362 -491 467 -125 85 -305 164 -455 202 -117 29 -319
48 -330 31 -3 -4 10 -8 28 -8 147 0 362 -53 552 -134 208 -90 493 -336 729
-631 80 -99 236 -329 236 -346 0 -6 3 -11 8 -11 4 0 12 -10 18 -23 6 -12 38
-74 71 -137 73 -140 112 -230 168 -381 45 -121 147 -441 197 -619 16 -58 36
-127 44 -155 8 -27 16 -57 19 -65 2 -8 12 -49 23 -90 29 -108 93 -352 97 -370
2 -8 17 -78 34 -155 18 -77 34 -155 37 -175 14 -98 48 -289 69 -399 33 -167
33 -167 -12 -174 -21 -3 -112 -7 -203 -7 -167 -1 -179 -2 -305 -15 -260 -26
-519 -127 -760 -294 -55 -38 -157 -113 -165 -121 -3 -3 -31 -22 -62 -42 -49
-32 -58 -35 -62 -20 -5 16 -24 112 -31 157 -27 164 -36 213 -39 230 -3 18 -10
70 -21 150 -11 95 -36 273 -39 290 -2 11 -7 43 -10 70 -4 28 -11 82 -17 120
-11 78 -18 135 -24 180 -2 17 -6 48 -10 70 -11 66 -36 228 -40 255 -5 32 -15
96 -21 124 -2 11 -6 39 -9 61 -4 22 -12 65 -20 95 l-14 55 4 -60 c2 -33 8 -82
14 -110 5 -27 12 -79 16 -115 3 -36 8 -76 10 -90 3 -14 7 -61 10 -105 5 -73
10 -126 20 -195 13 -92 16 -130 12 -130 -5 0 -97 154 -152 255 -15 28 -51 93
-80 145 -29 52 -67 122 -85 155 -58 108 -445 878 -485 965 -21 47 -56 121 -78
165 -21 44 -56 124 -78 178 -22 54 -46 108 -54 121 -8 12 -24 48 -35 81 -11
32 -31 78 -45 103 -14 24 -25 60 -25 79 0 19 -8 47 -19 61 -25 37 -48 90 -56
132 -4 19 -13 46 -20 60 -7 14 -19 44 -26 68 -7 24 -22 51 -34 60 -16 13 -19
23 -14 42 12 43 10 78 -6 94 -18 18 -19 33 -2 39 7 3 0 9 -15 16 -16 6 -28 17
-28 26 0 23 24 18 50 -10 13 -14 30 -25 38 -25 12 0 12 -3 2 -15 -10 -12 -10
-15 2 -15 8 0 27 -12 42 -27 21 -22 223 -266 299 -363 65 -82 114 -139 188
-215 317 -326 361 -384 407 -526 12 -36 53 -191 92 -345 86 -341 122 -475 127
-470 2 2 -8 57 -22 122 -14 66 -44 205 -66 309 -66 310 -69 323 -89 384 -26
82 -115 249 -150 281 -3 3 -18 23 -35 45 -16 22 -32 42 -35 45 -7 5 -95 121
-171 225 -68 93 -346 510 -406 608 -100 165 -146 284 -118 307 25 21 70 -4
150 -84 191 -190 427 -560 574 -900 25 -58 38 -57 17 1 -23 65 -127 281 -179
373 -114 199 -264 405 -404 552 -40 42 -73 81 -73 87 0 24 196 92 308 106 20
3 65 9 100 14 34 4 76 6 92 4 17 -1 30 1 30 7 0 5 -50 7 -122 5 -93 -3 -150
-12 -236 -34 l-113 -29 -11 26 c-20 51 -80 217 -82 227 -1 6 -4 15 -7 20 -27
46 -245 759 -284 925 -2 8 -13 53 -25 100 -12 47 -24 96 -26 110 -3 14 -11 53
-19 88 -8 34 -17 77 -20 95 -3 17 -8 39 -10 47 -2 8 -7 35 -10 60 -4 24 -8 47
-10 50 -2 3 -6 44 -10 90 -3 47 -9 105 -12 130 -3 25 -7 72 -8 105 -1 59 -9
101 -25 140 -17 42 -29 82 -44 150 -32 143 -77 331 -87 361 -10 33 -26 39
-129 50 -19 2 -47 6 -62 9 -31 5 -38 -14 -13 -35 15 -13 21 -35 7 -26 -13 8
-114 20 -265 32 -86 6 -128 10 -227 18 -125 10 -200 16 -310 21 -111 6 -132 9
-220 26 -30 7 -62 13 -70 14 -8 2 -21 4 -27 4 -7 1 -13 5 -13 10 0 4 40 9 90
10 49 1 97 4 107 5 17 4 152 16 238 22 43 3 268 3 435 1 92 -2 144 2 275 18
17 2 57 5 90 6 118 5 137 19 180 134 33 86 86 197 92 191 2 -2 21 7 40 20 30
20 43 23 87 18 28 -4 51 -7 52 -8 1 0 37 -55 82 -121 119 -177 120 -177 188
-176 70 0 121 17 129 40 3 10 3 35 0 57 -2 21 -7 62 -10 89 -3 28 -8 61 -10
75 -3 25 -16 132 -20 180 -1 14 -6 59 -10 100 -4 41 -8 93 -9 115 -2 63 14 67
239 60 105 -4 213 -8 240 -10z m7985 -449 c248 -11 358 -22 375 -36 12 -10
130 -24 233 -29 15 -1 22 -7 22 -21 0 -11 5 -20 10 -20 6 0 10 -7 10 -15 0 -8
4 -15 9 -15 22 0 -48 -223 -132 -420 -86 -200 -167 -385 -177 -402 -5 -10 -28
-68 -51 -130 -23 -62 -45 -118 -49 -123 -5 -6 -34 -78 -65 -160 -31 -83 -83
-215 -115 -295 -32 -80 -74 -185 -93 -235 -20 -49 -48 -117 -63 -150 -15 -33
-28 -62 -29 -65 -1 -3 -5 -14 -9 -25 -4 -11 -13 -33 -19 -50 -6 -16 -25 -63
-44 -103 -18 -40 -46 -110 -62 -155 -16 -45 -70 -192 -121 -327 -122 -327
-307 -824 -387 -1040 -36 -96 -75 -202 -88 -235 -13 -33 -48 -125 -78 -205
-30 -80 -68 -174 -84 -210 -35 -76 -51 -116 -171 -430 -50 -129 -101 -259
-114 -288 l-23 -53 -110 106 c-176 169 -329 278 -525 374 -219 108 -479 188
-705 217 -22 3 -53 7 -70 9 -16 3 -64 8 -105 11 -41 4 -84 8 -95 9 -11 1 -38
3 -60 4 -66 2 -69 9 -33 87 40 86 675 1352 710 1414 14 25 41 74 60 110 20 36
45 82 56 102 12 21 38 68 58 105 21 37 55 100 77 138 22 39 48 86 59 105 11
19 32 55 47 80 15 25 61 101 101 170 40 69 81 136 90 150 16 24 113 221 180
365 64 136 142 290 155 305 14 16 116 219 236 470 153 321 324 659 360 712 21
32 39 61 39 64 0 14 52 75 77 91 15 10 50 17 90 19 36 1 69 7 72 12 3 6 22 12
41 14 52 5 334 1 510 -6z m1090 -149 c56 -12 110 -51 110 -78 0 -8 9 -36 19
-64 10 -27 22 -79 26 -115 3 -36 8 -76 10 -90 2 -14 7 -70 10 -125 3 -55 8
-134 10 -175 3 -41 7 -84 9 -95 2 -11 0 -25 -5 -31 -5 -6 -10 -20 -12 -32 -2
-12 -6 -24 -10 -28 -3 -3 2 -18 11 -32 9 -14 15 -35 14 -45 -2 -11 4 -49 13
-86 15 -60 15 -69 1 -96 -9 -17 -16 -37 -16 -45 1 -20 36 -65 52 -65 9 0 13
-16 14 -50 1 -55 10 -84 48 -143 33 -52 73 -221 101 -422 3 -19 8 -51 12 -70
3 -19 7 -42 9 -50 4 -23 16 -102 19 -127 2 -12 6 -34 9 -50 4 -15 9 -41 12
-58 14 -83 46 -191 71 -242 45 -92 178 -220 432 -415 74 -57 136 -108 138
-114 7 -22 -281 -318 -1347 -1384 -963 -963 -1145 -1140 -1282 -1249 -38 -29
-71 -58 -75 -64 -27 -42 -200 -164 -257 -181 -88 -27 -278 1 -398 58 -66 31
-170 115 -202 162 -32 47 -28 81 36 289 27 89 124 358 148 410 10 20 100 256
127 330 8 22 25 67 38 100 13 33 46 125 75 205 29 80 58 159 65 175 7 17 39
98 70 180 31 83 61 159 66 170 23 56 135 338 155 395 13 36 28 74 33 85 5 11
64 162 130 335 66 173 132 347 146 385 15 39 38 99 51 134 13 35 60 150 103
255 44 105 113 272 154 371 110 265 126 303 162 380 18 39 54 121 80 182 26
62 51 115 55 118 5 3 12 25 16 50 3 24 15 55 26 67 11 13 23 29 27 36 4 7 33
16 64 19 77 8 77 8 92 273 4 63 11 135 16 160 9 41 72 213 104 285 l14 30 1
-45 c5 -185 10 -234 24 -248 28 -29 42 -5 112 203 24 71 44 135 44 143 0 33
35 84 78 112 50 33 61 34 142 17z m4433 -203 c12 -4 17 -16 17 -45 0 -34 3
-39 24 -39 34 0 42 -45 51 -299 2 -79 8 -128 16 -135 9 -8 11 -7 6 6 -3 10 7
35 25 62 l30 46 37 -59 c48 -80 129 -165 145 -152 6 5 22 11 36 12 78 7 92
-16 49 -81 -16 -24 -29 -48 -29 -55 0 -6 -12 -27 -26 -46 -14 -19 -39 -60 -55
-92 -16 -32 -36 -60 -44 -64 -8 -3 -15 -12 -15 -20 0 -8 -11 -29 -25 -45 -14
-17 -35 -49 -47 -72 -11 -22 -44 -63 -74 -89 -29 -26 -56 -58 -60 -70 -4 -12
-22 -40 -40 -62 -19 -22 -53 -64 -76 -92 -24 -29 -62 -74 -85 -100 -24 -25
-45 -55 -49 -65 -3 -10 -8 -18 -12 -18 -12 0 -66 -53 -97 -95 -16 -22 -35 -46
-42 -53 -7 -8 -18 -23 -25 -35 -6 -12 -21 -30 -34 -40 -13 -9 -26 -26 -29 -37
-4 -11 -13 -20 -21 -20 -8 0 -14 -4 -14 -8 0 -10 -38 -57 -105 -130 -27 -30
-61 -68 -75 -85 -14 -16 -36 -42 -50 -57 -14 -15 -48 -53 -76 -86 -196 -226
-217 -249 -294 -334 -59 -64 -150 -167 -265 -299 -16 -19 -37 -42 -45 -51 -8
-9 -42 -47 -75 -85 -80 -93 -117 -135 -135 -155 -8 -9 -49 -56 -90 -105 -41
-49 -82 -96 -90 -105 -8 -9 -40 -45 -70 -80 -30 -35 -60 -68 -65 -74 -6 -6
-35 -40 -65 -76 -30 -36 -57 -67 -60 -70 -3 -3 -35 -39 -70 -80 -36 -41 -67
-77 -70 -80 -3 -3 -36 -41 -75 -85 -38 -44 -72 -82 -75 -85 -3 -3 -46 -52 -95
-110 -50 -58 -93 -107 -96 -110 -3 -3 -39 -43 -79 -90 -41 -47 -77 -87 -80
-90 -9 -9 -84 -94 -135 -154 -27 -33 -55 -64 -60 -70 -6 -6 -69 -78 -140 -161
-71 -82 -132 -152 -135 -155 -3 -3 -32 -36 -65 -75 -33 -38 -62 -72 -65 -75
-3 -3 -30 -34 -60 -70 -30 -36 -59 -70 -65 -76 -5 -6 -29 -33 -52 -60 -23 -27
-51 -60 -63 -74 -12 -14 -119 -139 -238 -279 -206 -241 -358 -419 -462 -541
-26 -30 -102 -120 -170 -199 l-122 -143 -18 28 c-10 15 -26 48 -36 73 -18 48
-90 169 -152 256 -114 159 -294 345 -468 485 -91 73 -412 250 -555 306 -39 15
-72 31 -75 35 -8 13 69 98 356 392 873 895 3581 3615 3926 3944 88 84 197 181
241 215 45 35 119 92 165 127 46 35 87 70 91 78 12 20 26 16 37 -9 8 -22 9
-21 11 7 1 17 1 33 0 37 0 4 16 16 37 27 45 23 90 63 127 113 16 23 51 50 89
69 79 40 86 46 86 77 0 25 0 25 21 6 17 -16 22 -16 29 -4 6 8 10 18 10 21 0
14 43 49 61 49 11 0 18 -4 14 -9 -3 -5 -1 -12 4 -16 6 -3 15 3 20 14 8 14 7
22 -4 31 -19 16 -19 40 0 40 8 0 15 5 15 10 0 6 24 26 54 45 30 19 56 39 58
44 1 6 21 13 42 17 21 3 48 10 60 14 21 9 215 4 249 -6z m67 -4 c0 -5 -7 -10
-15 -10 -8 0 -15 5 -15 10 0 6 7 10 15 10 8 0 15 -4 15 -10z m24 -35 c-9 -23
-23 1 -16 27 4 17 6 18 13 5 5 -8 6 -23 3 -32z m1624 -584 c25 -1 25 -6 7
-131 -2 -14 -6 -50 -10 -80 -8 -70 -12 -95 -21 -150 -4 -25 -8 -56 -10 -70 -2
-14 -8 -56 -14 -95 -5 -38 -12 -86 -15 -105 -3 -19 -7 -42 -10 -50 -2 -8 -6
-37 -10 -65 -3 -27 -17 -120 -31 -205 -59 -369 -83 -417 -299 -606 -74 -65
-187 -160 -249 -209 -21 -16 -70 -56 -110 -87 -39 -31 -114 -85 -166 -119 -84
-54 -609 -369 -616 -369 -1 0 -35 -19 -76 -43 -40 -24 -104 -60 -141 -81 -88
-48 -116 -63 -277 -155 -74 -43 -171 -97 -215 -121 -44 -23 -123 -67 -175 -96
-197 -110 -356 -143 -502 -103 -104 28 -346 133 -354 154 -3 8 13 36 37 64 39
46 45 49 64 38 60 -39 164 -66 275 -73 l85 -6 170 95 c700 388 1123 647 1553
954 95 67 178 127 185 133 6 6 39 31 73 58 33 26 78 61 99 77 106 84 201 197
258 310 53 105 115 334 141 515 2 19 8 58 12 85 6 49 9 66 18 115 3 14 8 52
11 85 3 33 8 67 10 75 2 8 6 33 10 55 30 207 29 203 68 207 31 3 177 3 225 -1z
m-5461 -736 c13 -9 24 -32 29 -57 4 -24 8 -45 9 -48 1 -3 5 -34 10 -70 5 -36
9 -67 10 -70 8 -32 28 -128 30 -144 1 -12 6 -46 9 -76 12 -92 45 -211 70 -255
48 -80 143 -164 354 -309 63 -43 116 -85 119 -93 7 -19 -67 -95 -87 -90 -21 6
-299 197 -385 265 -163 129 -178 163 -230 517 -3 22 -10 72 -16 110 -6 39 -12
88 -15 110 -3 22 -7 47 -9 55 -13 47 -16 141 -5 155 16 19 79 19 107 0z m5260
-722 c1 -98 4 -111 28 -137 14 -15 26 -35 27 -44 0 -9 2 -22 2 -28 2 -20 29
-45 43 -40 7 3 13 2 14 -2 0 -4 2 -29 5 -57 2 -27 9 -65 14 -84 7 -25 6 -37
-2 -42 -8 -5 -8 -24 2 -71 8 -38 14 -142 15 -265 0 -111 4 -205 8 -209 3 -4 3
-14 -2 -23 -5 -9 -12 -50 -15 -91 -10 -104 -16 -147 -27 -206 -5 -28 -12 -69
-15 -93 -7 -58 -54 -197 -104 -311 -23 -52 -67 -151 -97 -220 -29 -69 -58
-134 -63 -145 -5 -11 -30 -69 -56 -130 -26 -60 -60 -139 -77 -175 -16 -36 -40
-90 -54 -120 -14 -30 -43 -93 -64 -138 -22 -46 -54 -114 -71 -150 -38 -85
-247 -502 -292 -584 -18 -35 -49 -92 -68 -128 -35 -65 -53 -97 -111 -200 -76
-135 -325 -497 -416 -606 -14 -17 -42 -51 -60 -75 -34 -43 -341 -352 -431
-435 -75 -68 -313 -268 -350 -294 -19 -13 -41 -30 -48 -37 -21 -20 -51 -35
-61 -29 -5 3 -3 32 5 63 23 103 25 126 29 298 6 252 -13 347 -91 466 -48 73
-112 133 -231 215 -121 85 -191 116 -259 115 -79 -1 -127 -16 -384 -126 -249
-107 -251 -116 -5 -23 382 145 383 146 497 87 208 -105 350 -240 401 -379 54
-146 38 -494 -31 -690 -32 -93 -59 -119 -237 -238 -220 -146 -446 -294 -562
-368 -134 -86 -405 -259 -500 -321 -45 -29 -84 -53 -87 -53 -3 0 -36 -20 -73
-44 -37 -24 -84 -53 -103 -63 -19 -11 -116 -69 -215 -130 -99 -60 -206 -124
-239 -142 l-59 -33 7 44 c15 107 19 147 20 206 2 70 -26 272 -55 402 -6 25
-12 52 -14 60 -8 40 -55 191 -74 240 -100 254 -275 450 -554 624 -15 9 -25 20
-23 25 3 4 36 20 73 36 192 79 261 108 288 120 17 7 73 30 125 50 104 41 169
68 215 90 l30 15 -30 -7 c-16 -3 -151 -54 -300 -114 -148 -59 -340 -133 -425
-163 -85 -31 -164 -60 -175 -65 -11 -5 -76 -32 -145 -62 -69 -29 -180 -79
-247 -111 -68 -31 -134 -60 -148 -64 -53 -13 -91 4 -162 74 -107 105 -163 196
-163 267 0 39 59 131 245 380 138 185 183 229 249 251 73 24 106 42 106 59 0
18 -13 18 -62 1 -21 -7 -40 -11 -42 -8 -5 4 82 115 131 167 10 11 65 76 123
145 58 69 117 138 131 155 15 16 109 127 210 245 101 118 188 220 194 226 5 6
33 37 60 69 28 32 55 63 60 69 6 6 33 38 60 71 28 32 57 66 65 75 25 27 70 79
165 190 50 57 101 116 115 130 14 14 45 50 70 80 25 30 52 62 60 70 8 9 44 49
80 90 106 119 144 163 160 180 8 8 65 71 125 140 61 68 117 131 125 140 8 9
42 47 75 85 137 156 215 245 261 295 22 25 52 58 64 73 15 17 32 26 45 25 21
-3 292 -94 500 -168 101 -36 132 -43 195 -43 45 0 95 7 125 18 207 71 833 439
1390 817 121 82 234 159 250 171 17 12 71 51 120 87 50 35 128 94 174 130 45
36 98 76 116 90 67 51 110 85 115 90 3 3 55 46 115 95 61 49 112 92 115 95 8
8 131 110 134 110 2 0 3 -12 3 -27z m-2467 -687 c-6 -44 -12 -47 -109 -60
l-53 -7 59 68 c33 37 69 78 79 91 l19 23 5 -38 c3 -21 3 -56 0 -77z m8377
-668 c59 -34 80 -52 75 -66 -2 -6 1 -12 6 -12 5 0 17 -17 25 -38 8 -21 22 -44
31 -51 9 -8 16 -21 16 -30 0 -9 5 -22 12 -29 12 -12 17 -156 5 -185 -5 -14
-11 -16 -26 -7 -11 5 -31 10 -45 10 -19 0 -27 7 -32 25 -7 27 -52 65 -78 65
-9 0 -16 8 -16 20 0 13 -7 20 -19 20 -23 0 -36 16 -45 55 -4 17 -14 54 -23 83
-14 47 -14 54 -1 70 9 9 18 30 22 45 6 25 11 28 31 23 19 -5 23 -3 19 9 -8 20
-2 19 43 -7z m633 -34 c0 -7 15 -14 33 -18 35 -6 173 0 188 9 5 3 30 9 56 12
27 3 50 5 53 6 26 3 102 -19 117 -34 31 -31 43 -48 43 -60 0 -6 11 -20 25 -31
41 -32 30 -127 -19 -167 -9 -8 -16 -22 -16 -32 0 -11 -7 -19 -17 -19 -10 0
-27 -7 -37 -15 -11 -8 -28 -15 -39 -15 -10 0 -31 -9 -46 -20 -18 -12 -43 -19
-72 -19 -91 2 -175 -2 -209 -10 -28 -6 -39 -4 -57 11 -13 13 -45 23 -88 28
-71 9 -87 16 -66 29 9 6 7 10 -8 14 -12 3 -21 9 -20 14 1 4 -6 25 -15 47 -30
67 -4 206 50 267 17 19 144 21 144 3z m-2094 -2508 c34 -8 72 -17 85 -20 13
-2 60 -16 105 -29 70 -22 109 -30 200 -42 123 -17 322 -103 376 -163 56 -62
59 -84 73 -542 7 -214 9 -253 30 -525 3 -27 7 -86 10 -130 3 -44 7 -91 10
-105 2 -14 7 -45 9 -70 13 -107 41 -160 80 -153 34 7 33 -1 -5 -48 -24 -31
-34 -37 -44 -29 -10 9 -16 7 -24 -8 -9 -17 -32 -136 -46 -242 -3 -25 -8 -56
-10 -70 -2 -14 -7 -45 -10 -70 -3 -25 -10 -72 -15 -105 -5 -33 -12 -85 -15
-115 -3 -30 -8 -62 -10 -70 -2 -8 -6 -40 -10 -71 -3 -31 -7 -65 -9 -75 -2 -11
-7 -53 -11 -94 -4 -41 -8 -82 -10 -90 -1 -8 -6 -51 -9 -95 -4 -44 -9 -91 -11
-105 -2 -14 -6 -56 -10 -95 -3 -38 -8 -86 -10 -105 -2 -19 -7 -60 -9 -90 -3
-30 -10 -91 -16 -135 -6 -44 -13 -102 -16 -130 -3 -27 -9 -75 -14 -105 -5 -30
-12 -77 -16 -105 -3 -27 -9 -69 -14 -93 -4 -23 -8 -100 -8 -169 l0 -128 -136
-2 c-166 -3 -167 -2 -186 113 -8 43 -14 81 -15 84 -1 3 -5 25 -9 50 -8 46 -42
235 -51 280 -2 13 -7 42 -10 65 -3 22 -8 47 -10 55 -2 8 -7 29 -9 45 -3 17
-12 71 -20 120 -23 133 -54 334 -61 385 -3 25 -10 70 -15 100 -5 30 -11 73
-14 95 -7 49 -17 113 -22 140 -2 11 -6 40 -9 65 -3 25 -8 56 -10 70 -3 14 -7
43 -10 65 -3 22 -7 49 -9 60 -2 11 -7 49 -11 85 -4 36 -8 67 -10 70 -2 3 -6
33 -10 67 -3 34 -8 71 -10 83 -2 12 -7 43 -10 69 -4 40 -15 123 -30 226 -3 17
-7 71 -11 120 l-7 91 56 114 c31 63 99 195 152 293 52 99 95 182 96 185 1 16
76 117 99 134 29 21 56 24 160 14 86 -8 109 0 89 32 -10 16 -10 26 -2 45 9 20
7 33 -12 73 -13 27 -40 66 -59 87 l-34 38 -89 -67 c-151 -116 -346 -279 -396
-332 -37 -40 -127 -192 -127 -216 0 -2 -25 -57 -56 -122 -31 -66 -76 -164
-101 -219 -25 -55 -58 -128 -74 -163 -16 -35 -29 -66 -29 -69 0 -2 -13 -34
-30 -70 -16 -35 -30 -66 -30 -68 0 -2 -26 -62 -59 -132 -32 -70 -68 -150 -81
-178 -12 -27 -62 -130 -110 -227 -140 -280 -153 -286 -64 -26 31 90 62 183 69
208 7 25 30 99 50 165 24 82 38 149 41 210 6 83 4 93 -17 124 -13 19 -55 53
-94 76 -38 23 -128 77 -200 120 -71 43 -139 83 -150 89 -62 35 -135 87 -148
106 -17 25 -14 38 27 120 12 25 24 48 25 52 1 4 19 45 40 90 51 110 76 170
156 378 80 207 139 328 192 395 117 147 338 323 464 370 53 19 219 14 315 -9z
m-24347 -92 c121 -35 236 -119 308 -226 46 -68 131 -223 260 -478 178 -351
204 -410 193 -430 -9 -17 -131 -100 -146 -100 -4 0 -15 -6 -23 -14 -9 -7 -65
-39 -126 -71 -157 -83 -214 -121 -226 -153 -6 -15 -11 -81 -12 -147 -1 -109 2
-131 36 -250 62 -220 135 -434 188 -552 11 -23 19 -44 19 -47 0 -3 17 -43 38
-88 21 -46 54 -117 72 -158 18 -41 54 -120 80 -175 82 -173 111 -246 116 -283
l5 -37 -28 32 c-15 17 -65 89 -109 160 -75 119 -331 549 -347 583 -4 8 -11 22
-17 30 -15 24 -120 202 -120 205 0 1 -36 64 -80 140 -44 76 -80 139 -80 140 0
10 -139 226 -167 261 -18 23 -33 44 -33 47 0 10 -326 517 -394 612 -23 33 -51
62 -60 63 -20 4 -20 -1 14 -183 10 -55 22 -116 25 -135 3 -19 15 -78 26 -130
11 -52 23 -106 25 -120 28 -145 140 -532 219 -760 141 -405 158 -467 170 -619
10 -120 15 -341 17 -789 1 -387 0 -424 -16 -440 -15 -15 -56 -17 -436 -19
-230 -1 -428 1 -440 4 -20 5 -21 10 -14 67 4 33 7 77 7 96 0 54 -14 263 -17
269 -2 3 -7 53 -11 111 -3 58 -8 123 -10 145 -5 50 -15 219 -20 345 -10 223
-27 473 -40 605 -15 143 -21 203 -44 380 -11 83 -23 195 -26 250 -4 55 -8 116
-10 135 -18 197 -24 858 -9 990 44 393 99 496 304 572 99 37 361 96 440 99 73
3 85 0 124 -26 53 -36 69 -32 97 20 18 34 36 52 74 70 55 28 105 28 204 -1z
m26316 -1332 c17 -5 42 -8 58 -6 18 2 27 -2 27 -12 0 -8 5 -14 11 -14 8 0 10
-17 7 -50 l-5 -51 22 21 c15 14 25 18 30 11 3 -6 4 -14 2 -18 -3 -5 -8 -37
-11 -73 -4 -35 -13 -74 -21 -87 -10 -15 -15 -49 -15 -107 0 -47 -4 -88 -10
-91 -5 -3 -17 -21 -26 -40 -12 -26 -30 -41 -73 -61 -63 -29 -62 -28 -154 -84
-38 -23 -71 -48 -73 -55 -3 -7 -13 -12 -22 -10 -9 1 -25 -4 -34 -13 -15 -12
-20 -13 -33 -2 -18 15 -142 23 -151 9 -3 -5 -15 -9 -28 -9 -12 0 -27 -5 -33
-11 -13 -13 -33 -4 -33 17 0 16 -36 19 -45 4 -4 -6 -12 -7 -18 -3 -7 4 -24 6
-39 4 -19 -2 -28 2 -28 12 0 8 -7 20 -15 27 -8 7 -12 17 -9 22 3 5 -2 18 -11
28 -10 11 -19 36 -21 56 -1 20 -8 40 -15 44 -6 4 -8 13 -5 19 5 7 -4 10 -26 8
-47 -5 -71 9 -58 33 12 22 13 40 3 39 -29 -5 -33 3 -10 21 16 13 27 33 29 53
2 19 8 31 16 29 6 -1 12 0 12 3 0 3 -6 15 -12 26 -10 17 -10 23 -1 26 21 8
102 96 114 125 10 24 44 46 80 51 8 2 20 6 28 11 11 7 11 10 -3 18 -18 10 -21
29 -5 45 7 7 22 7 52 -2 54 -16 143 -14 140 2 -5 22 100 36 153 21 25 -6 39
-6 49 2 33 28 137 33 210 12z m-935 -391 c0 -12 -20 -25 -27 -18 -7 7 6 27 18
27 5 0 9 -4 9 -9z m-8780 -225 c91 -86 194 -239 222 -331 18 -58 34 -181 32
-245 -6 -249 -41 -362 -153 -492 -98 -113 -387 -394 -436 -422 -25 -15 -70
-50 -98 -77 -29 -27 -60 -49 -70 -49 -10 0 -20 -7 -23 -15 -4 -9 -27 -27 -53
-42 -25 -15 -54 -35 -64 -44 -9 -10 -35 -24 -57 -30 -68 -21 -72 -11 -85 236
-7 150 -21 224 -58 310 -29 68 -95 174 -128 207 -15 15 -44 53 -65 85 -20 32
-58 85 -84 118 -59 74 -67 98 -43 122 10 10 187 123 393 252 206 128 398 248
425 266 187 121 281 174 305 175 8 0 26 -11 40 -24z m-7620 -133 c19 -10 46
-26 60 -34 14 -9 79 -49 145 -89 138 -84 394 -253 573 -379 68 -47 131 -90
141 -96 101 -60 977 -716 1126 -844 17 -14 48 -39 69 -56 22 -16 56 -44 77
-61 21 -18 93 -74 160 -125 122 -94 312 -246 359 -286 14 -12 36 -31 49 -42
13 -12 21 -24 17 -29 -9 -8 -4061 -11 -4119 -3 l-37 6 46 90 c38 73 380 700
469 860 41 73 151 269 199 353 25 45 57 101 70 125 174 310 368 646 390 673
l27 34 72 -39 c40 -21 88 -47 107 -58z"/>
<path d="M11726 16783 c-4 -5 -87 -9 -184 -9 -161 -2 -277 -7 -387 -18 -22 -2
-74 -7 -115 -11 -41 -3 -86 -8 -100 -10 -14 -2 -56 -6 -95 -10 -121 -10 -319
-37 -343 -46 -13 -5 -30 -25 -38 -46 -30 -71 -66 -96 -194 -132 -86 -24 -86
-24 -120 62 -13 31 -28 57 -33 57 -46 0 -279 -86 -355 -131 -18 -10 -39 -19
-46 -19 -8 0 -19 -7 -26 -15 -7 -8 -18 -15 -25 -15 -8 0 -49 -16 -92 -36 -160
-74 -265 -110 -350 -119 -32 -4 -76 -11 -98 -15 -22 -5 -62 -12 -90 -15 -101
-12 -120 -17 -143 -35 -16 -14 -21 -26 -18 -47 2 -15 7 -48 11 -73 33 -212
191 -598 344 -840 93 -146 124 -182 360 -422 107 -109 200 -206 206 -215 12
-17 5 -18 -115 -18 -93 0 -131 -4 -143 -14 -30 -24 -18 -35 50 -47 16 -3 37
-8 48 -11 11 -3 29 -7 40 -9 11 -1 63 -9 115 -18 52 -9 133 -18 180 -22 47 -3
96 -8 110 -10 96 -16 426 -21 615 -11 108 6 146 9 260 22 17 1 42 3 58 4 34 1
35 23 3 55 -20 21 -32 24 -107 24 -140 0 -159 2 -159 11 0 5 19 23 43 40 182
131 323 276 464 476 102 147 112 179 51 170 -106 -15 -260 -21 -277 -11 -4 3
-41 8 -82 11 -88 8 -138 19 -164 39 -19 14 -19 15 15 29 58 25 340 38 465 22
94 -12 118 -13 132 -8 16 6 80 130 108 208 10 28 22 55 25 60 4 6 12 24 18 40
5 17 27 75 47 130 20 55 38 105 39 110 1 6 8 28 14 50 20 69 60 274 77 390 9
61 18 126 21 145 8 55 14 262 7 288 -5 23 -14 28 -27 15z"/>
<path d="M7670 16650 c-12 -8 -12 -14 -1 -47 8 -21 22 -45 31 -53 10 -8 29
-33 44 -54 32 -48 34 -25 4 47 -33 79 -61 117 -78 107z"/>
<path d="M15127 12467 c-12 -31 11 -279 28 -295 22 -22 22 145 0 263 -2 11 -4
26 -4 33 -1 16 -17 16 -24 -1z"/>
<path d="M20900 16478 c-16 -7 -20 -12 -12 -15 8 -3 21 2 30 11 19 18 17 19
-18 4z"/>
<path d="M20793 16448 c-6 -7 -16 -23 -22 -35 -9 -18 -9 -22 2 -17 16 6 43 51
35 59 -3 3 -10 0 -15 -7z"/>
<path d="M19515 10486 c-33 -13 -121 -47 -195 -76 -74 -29 -148 -59 -165 -66
-16 -7 -68 -28 -115 -47 -47 -19 -111 -47 -142 -61 -31 -14 -59 -26 -61 -26
-13 0 -78 -32 -74 -36 2 -3 20 2 38 10 19 8 144 58 279 112 313 123 482 193
495 205 13 13 8 11 -60 -15z"/>
<path d="M18716 10161 c-4 -5 3 -7 14 -4 23 6 26 13 6 13 -8 0 -17 -4 -20 -9z"/>
<path d="M2292 10067 c-36 -38 -79 -149 -73 -189 1 -4 22 1 49 11 48 19 119
22 181 6 33 -8 34 -8 27 20 -14 57 -115 175 -150 175 -7 0 -22 -10 -34 -23z"/>
<path d="M28670 8960 c-8 -16 -8 -20 4 -20 16 0 29 27 16 35 -5 3 -14 -4 -20
-15z"/>
<path d="M29288 8783 c7 -3 16 -2 19 1 4 3 -2 6 -13 5 -11 0 -14 -3 -6 -6z"/>
</g>
</svg>
