<?xml version="1.0" standalone="no"?>
<!DOCTYPE svg PUBLIC "-//W3C//DTD SVG 20010904//EN"
 "http://www.w3.org/TR/2001/REC-SVG-20010904/DTD/svg10.dtd">
<svg version="1.0" xmlns="http://www.w3.org/2000/svg"
 width="1920.000000pt" height="1080.000000pt" viewBox="0 0 1920.000000 1080.000000"
 preserveAspectRatio="xMidYMid meet">

<g transform="translate(0.000000,1080.000000) scale(0.100000,-0.100000)"
fill="#000000" stroke="none">
<path d="M0 7974 c0 -2257 3 -2824 12 -2818 13 8 911 608 2069 1382 360 241
788 528 950 637 285 193 296 199 345 200 39 0 58 -6 85 -26 106 -80 472 -279
604 -328 120 -45 316 -134 392 -178 43 -25 155 -96 248 -158 214 -141 359
-227 528 -311 292 -147 489 -212 702 -233 55 -6 138 -15 185 -22 92 -12 325
-7 495 12 55 6 217 29 360 51 374 58 347 57 377 17 14 -19 63 -101 109 -182
46 -82 95 -168 108 -190 34 -59 172 -261 185 -269 30 -20 58 -4 147 83 150
147 153 149 544 329 54 25 174 65 300 100 123 35 144 44 173 75 17 19 32 45
32 57 0 13 -15 77 -34 143 -19 66 -35 125 -36 130 -7 32 1 35 85 35 l85 0 0
149 c0 144 -1 151 -22 165 -12 9 -33 16 -45 16 -20 0 -23 -5 -24 -42 0 -24 -4
-51 -7 -61 -7 -16 -10 -16 -30 8 -19 22 -30 26 -64 23 l-42 -3 -26 -90 c-26
-86 -83 -215 -97 -215 -7 0 4 483 13 576 6 56 5 61 -14 66 -41 11 -52 -11 -62
-122 -13 -142 -41 -310 -51 -305 -10 7 -21 125 -22 250 l-2 100 -30 0 -30 0
-6 -115 c-8 -147 -18 -212 -33 -207 -18 6 -45 145 -58 308 l-13 154 -36 3 -36
3 -6 -121 c-4 -66 -10 -145 -13 -175 -6 -51 -8 -54 -28 -43 -48 26 -50 34 -26
108 l22 69 -22 31 c-31 44 -62 38 -72 -15 -23 -111 -37 -63 -46 150 l-7 160
-26 3 c-29 3 -39 -13 -60 -101 -6 -26 -15 -50 -20 -52 -21 -13 -79 270 -79
385 0 58 -8 70 -47 70 -30 0 -36 -4 -49 -37 -35 -83 -132 -198 -151 -180 -6 7
21 123 67 282 35 120 36 132 23 159 -17 32 -29 32 -128 -4 -63 -23 -225 -40
-225 -24 0 6 13 17 28 26 34 21 174 142 257 224 82 81 165 193 165 224 0 38
-45 126 -75 146 -23 15 -26 22 -20 50 4 26 1 38 -15 54 -11 11 -27 20 -35 20
-29 0 -72 -29 -111 -73 -49 -54 -59 -60 -82 -48 -11 6 -66 66 -123 133 -57 68
-183 216 -281 330 l-177 207 32 28 c18 15 58 42 89 58 l58 30 0 86 c0 71 4 91
19 110 28 34 86 30 193 -15 101 -42 94 -43 257 41 100 51 257 154 332 217 l37
30 5 190 c8 277 48 438 191 758 31 70 56 129 56 132 0 3 -1849 6 -4110 6
l-4110 0 0 -2826z"/>
<path d="M9600 8961 l0 -1840 -30 9 c-124 36 -384 181 -497 277 l-53 45 0 -56
0 -56 35 0 c26 0 39 -6 51 -25 20 -30 132 -106 200 -136 59 -25 147 -53 231
-73 52 -12 62 -12 67 0 4 11 11 11 33 3 15 -6 51 -17 78 -25 l50 -14 -60 6
c-33 4 -85 8 -115 9 -135 6 -370 101 -466 188 -34 31 -61 47 -78 47 -14 0 -26
-4 -26 -9 0 -14 101 -105 160 -144 65 -43 218 -107 312 -130 94 -24 108 -22
108 8 0 30 0 30 149 6 75 -13 119 -25 130 -36 15 -16 8 -17 -131 -12 l-148 5
0 -3488 c0 -1919 3 -3495 6 -3504 6 -14 100 -16 966 -16 l961 0 -6 32 c-3 18
-54 122 -113 231 l-107 199 5 63 c4 39 14 78 28 104 l23 41 -47 432 c-26 238
-47 444 -47 458 1 60 57 566 64 578 8 11 37 17 37 7 0 -3 20 -78 44 -167 110
-405 234 -685 437 -988 126 -189 105 -172 579 -464 227 -141 500 -301 720
-423 l185 -103 1704 2 1705 3 39 73 c45 83 56 156 38 242 -11 53 -11 55 19 95
64 85 153 221 181 277 23 45 29 71 29 118 0 70 -5 83 -70 165 -44 57 -48 66
-64 165 -26 163 -43 213 -85 254 -20 19 -50 38 -68 42 -26 5 -37 1 -68 -27
-41 -39 -49 -66 -65 -218 l-11 -104 -110 -116 -110 -117 -72 18 c-177 46 -409
59 -662 37 -144 -13 -156 -10 -261 62 -38 26 -44 35 -62 106 -12 43 -22 93
-24 111 -3 32 -1 34 57 57 124 51 187 122 189 212 1 38 -4 49 -31 73 -38 34
-125 55 -200 47 -57 -6 -172 -57 -239 -105 -31 -23 -56 -57 -100 -139 -110
-207 -141 -247 -259 -341 -107 -85 -111 -90 -199 -234 -50 -82 -95 -148 -99
-148 -4 0 -79 44 -165 98 -617 387 -920 572 -1417 864 -214 126 -394 233 -398
237 -4 4 -17 61 -28 127 -95 570 -266 1205 -434 1615 -25 60 -45 116 -45 122
0 7 21 23 47 36 26 13 70 38 98 56 56 38 155 133 155 150 0 6 -24 22 -52 37
-77 38 -167 107 -219 169 -54 64 -89 114 -89 126 0 4 19 20 43 35 60 38 162
132 188 174 12 19 25 32 29 27 4 -4 93 -238 198 -519 179 -480 230 -598 321
-747 46 -75 66 -90 87 -62 33 45 43 133 79 695 20 316 45 708 55 870 35 521
35 545 16 575 -17 26 -15 33 109 404 l126 378 256 6 c141 4 259 4 264 1 21
-13 6 -42 -36 -72 -25 -17 -45 -38 -45 -46 0 -69 -39 -308 -76 -468 l-25 -106
260 -519 c329 -656 688 -1343 701 -1343 4 0 13 12 21 28 12 23 14 193 16 1052
l3 1025 -78 112 c-42 62 -117 171 -166 243 l-89 130 -67 21 -68 22 -6 45 c-3
25 -6 53 -6 63 0 22 240 217 395 320 160 107 350 201 452 223 30 7 31 6 48
-44 l17 -51 -36 -43 -36 -44 -19 -273 -20 -273 75 -111 c76 -110 326 -477 439
-642 278 -407 519 -760 559 -820 27 -40 52 -73 56 -73 4 0 13 39 20 88 11 78
9 114 -14 347 -57 575 -146 1497 -146 1513 0 15 -355 426 -384 444 -6 4 -26 8
-45 8 -27 0 -42 9 -73 42 -21 23 -38 45 -38 48 0 4 61 41 136 81 121 66 270
158 391 242 l40 28 174 -122 c215 -151 279 -198 279 -205 0 -2 -14 -32 -30
-65 l-31 -60 37 -52 c21 -28 37 -56 37 -62 0 -6 -18 -42 -40 -80 l-41 -70 14
-220 c8 -121 17 -230 22 -242 4 -12 309 -327 677 -699 l670 -677 3 125 3 125
-210 732 c-116 403 -213 741 -216 752 -6 17 -1 19 35 19 38 0 60 -14 237 -142
107 -78 197 -147 200 -154 2 -6 -10 -35 -26 -63 -17 -29 -31 -57 -31 -63 0 -6
14 -35 31 -64 l31 -54 -42 -75 -41 -75 21 -242 c11 -132 21 -242 22 -244 156
-163 1320 -1334 1326 -1334 4 0 6 55 4 122 -3 114 -7 138 -57 313 -29 105 -77
273 -105 375 -29 102 -96 341 -151 533 -54 191 -99 354 -99 362 0 11 12 15 49
15 46 0 55 -5 232 -136 101 -75 186 -138 188 -140 2 -2 -6 -26 -18 -53 -27
-64 -27 -73 9 -122 34 -48 33 -65 -13 -147 l-29 -52 12 -238 c9 -171 16 -243
27 -260 15 -25 213 -252 219 -252 2 0 4 318 3 708 l0 707 -376 225 c-206 124
-391 235 -411 246 -21 12 -131 79 -247 149 -115 70 -293 176 -395 235 -262
151 -591 347 -945 562 -77 47 -190 110 -251 140 -220 109 -429 233 -677 401
l-147 99 -119 -85 c-65 -48 -150 -100 -187 -118 -391 -178 -986 -511 -1194
-668 -254 -191 -591 -377 -863 -476 -71 -26 -130 -45 -131 -43 -2 1 -11 68
-20 148 -38 325 -110 746 -172 1007 -13 57 -24 109 -24 116 0 8 17 19 39 25
99 30 117 89 59 202 -27 52 -34 77 -36 139 l-4 76 62 85 c182 251 227 385 277
810 19 156 -56 552 -130 693 -38 72 -136 165 -214 203 -57 29 -60 29 -238 29
-171 0 -184 -2 -260 -28 -87 -31 -252 -118 -383 -203 -53 -35 -84 -50 -87 -41
-2 6 -6 71 -10 142 -19 386 -137 701 -356 956 l-60 69 -1049 0 -1050 0 0
-1839z m2440 -934 c0 -177 -5 -264 -19 -367 -36 -243 -52 -461 -58 -740 -5
-269 -5 -278 21 -404 14 -71 26 -137 26 -148 0 -17 -11 -18 -147 -18 l-148 0
-54 -93 c-142 -242 -445 -717 -458 -717 -3 0 -48 41 -101 91 -115 108 -224
191 -350 266 -119 70 -183 99 -367 163 -149 52 -258 102 -304 141 l-24 20 22
127 c12 70 26 157 31 194 11 87 39 185 56 199 18 15 18 22 -2 -263 -8 -127
-13 -232 -10 -235 2 -2 23 32 47 78 45 86 83 139 101 139 7 0 9 -22 5 -62 -6
-71 -11 -79 59 77 47 105 143 267 153 260 5 -2 12 -26 16 -52 3 -27 19 -118
35 -204 16 -86 31 -201 35 -255 7 -123 15 -187 21 -181 3 3 16 83 29 179 22
157 71 417 81 427 12 13 13 -16 4 -95 -15 -124 -25 -512 -13 -499 5 6 36 126
68 268 32 141 61 257 64 257 4 0 14 -22 24 -50 19 -53 61 -110 81 -110 9 0 12
14 8 48 -5 53 30 169 89 297 35 78 41 76 53 -27 4 -32 11 -58 14 -58 4 0 42
59 85 130 43 72 80 130 82 130 2 0 22 -33 45 -72 55 -96 128 -198 142 -198 7
0 9 20 4 63 -3 34 -9 150 -13 258 l-6 197 79 -19 c43 -11 129 -22 189 -25
l110 -6 -61 40 c-33 22 -88 66 -122 98 l-60 59 -6 140 -6 140 216 327 c119
181 220 325 225 322 5 -3 9 -110 9 -237z m-2094 -998 c3 -5 -1 -12 -10 -15
-17 -7 -59 13 -52 25 7 10 54 2 62 -10z m84 -8 c0 -8 -61 -22 -69 -15 -1 1 0
7 4 13 8 13 65 15 65 2z m2037 -273 c-3 -8 -6 -5 -6 6 -1 11 2 17 5 13 3 -3 4
-12 1 -19z m-2045 -102 l21 -45 -34 -40 c-19 -21 -36 -40 -40 -40 -7 -1 -49
86 -49 102 0 12 59 66 73 67 4 0 17 -20 29 -44z m3177 -193 c23 -40 41 -77 41
-82 0 -15 -68 -25 -84 -12 -15 13 -28 110 -19 153 7 36 11 32 62 -59z m-1124
-629 c25 -34 45 -66 45 -70 0 -5 -20 -29 -45 -54 l-44 -45 -52 -289 -53 -290
46 -90 c51 -100 65 -146 47 -146 -7 0 -78 65 -158 144 -80 79 -192 185 -248
236 -102 92 -103 93 -85 115 9 13 120 147 246 299 182 220 232 274 242 265 8
-6 34 -40 59 -75z m785 -303 c0 -52 -14 -75 -25 -42 -8 25 4 91 16 91 5 0 9
-22 9 -49z m3602 -5280 c-4 -41 -29 -62 -60 -50 -34 13 -92 57 -92 70 0 6 31
9 78 7 75 -3 77 -4 74 -27z"/>
<path d="M8945 7488 c11 -57 36 -126 48 -136 9 -8 11 5 9 56 -3 51 -9 72 -25
90 -29 31 -40 28 -32 -10z"/>
<path d="M3171 6860 c-142 -93 -301 -217 -301 -236 0 -6 11 -36 25 -66 31 -66
31 -76 0 -122 -14 -20 -25 -41 -25 -47 0 -5 18 -49 41 -97 l41 -87 -12 -220
c-7 -121 -15 -225 -19 -232 -3 -6 -27 -35 -52 -65 -43 -48 -305 -354 -418
-487 -25 -30 -80 -93 -121 -141 -41 -47 -196 -228 -345 -402 -148 -174 -273
-314 -277 -312 -15 9 -8 91 17 215 127 614 298 1463 302 1498 5 38 4 43 -10
38 -17 -7 -417 -305 -417 -312 0 -1 11 -26 24 -54 27 -59 23 -103 -14 -154
-28 -38 -23 -66 31 -153 l41 -68 -6 -120 c-3 -67 -9 -170 -12 -230 l-5 -110
-62 -70 c-35 -39 -99 -114 -142 -166 -44 -52 -82 -97 -85 -100 -3 -3 -52 -61
-110 -130 -151 -181 -181 -216 -257 -305 -38 -44 -156 -183 -262 -310 -278
-330 -259 -310 -282 -290 -10 10 -21 25 -24 35 -3 9 31 189 75 401 45 211 112
537 150 724 39 187 79 382 90 433 23 105 25 132 9 132 -6 0 -81 -50 -167 -112
-232 -165 -252 -181 -252 -196 0 -7 11 -38 25 -68 28 -62 26 -90 -11 -125 -34
-32 -30 -61 22 -152 l46 -80 -7 -216 c-4 -119 -12 -225 -18 -236 -6 -11 -44
-61 -86 -111 -42 -50 -112 -135 -156 -189 -44 -54 -97 -118 -117 -142 l-38
-44 0 -1780 0 -1779 1280 0 c704 0 1280 2 1280 5 0 3 -13 31 -29 63 -16 31
-41 91 -55 132 -19 51 -43 93 -75 130 -59 70 -128 159 -191 251 -49 70 -50 75
-50 144 0 90 12 128 63 188 38 46 40 54 51 150 7 56 17 112 24 123 15 28 79
84 96 84 17 0 84 -73 96 -106 6 -14 10 -71 10 -127 l0 -103 30 -17 c24 -15 81
-66 234 -215 2 -2 28 8 57 22 204 92 480 128 686 87 l92 -18 92 36 92 35 34
74 c19 41 37 89 40 107 5 30 2 34 -43 60 -180 104 -214 140 -214 220 0 179
294 141 479 -61 29 -32 87 -100 129 -151 53 -65 103 -113 162 -156 100 -72
244 -215 336 -333 36 -46 73 -84 81 -84 8 0 41 18 72 41 300 217 895 617 1092
734 10 6 104 62 211 126 106 64 252 150 323 192 l130 75 8 58 c18 124 78 472
92 529 7 33 30 130 50 215 78 334 176 660 287 953 57 149 59 159 43 177 -19
21 -134 82 -186 99 -20 6 -48 25 -64 41 -26 27 -27 30 -9 37 30 11 130 90 186
147 72 73 159 191 153 207 -3 8 -22 24 -43 36 -20 11 -68 44 -106 72 -38 28
-74 50 -79 48 -10 -3 -22 -34 -117 -292 -80 -218 -91 -248 -105 -285 -7 -19
-23 -62 -35 -95 -12 -33 -26 -69 -30 -80 -19 -43 -170 -453 -170 -460 0 -13
-82 -105 -89 -100 -5 2 -20 37 -34 77 -22 63 -29 115 -52 388 -14 173 -37 441
-50 595 -14 154 -36 415 -50 580 -14 165 -28 325 -31 356 l-6 57 112 183 c62
101 128 208 146 236 19 29 34 57 34 61 0 15 33 39 110 81 41 22 79 46 84 53
12 19 -11 94 -35 117 -27 25 -44 28 -314 46 -159 11 -329 15 -551 13 -300 -3
-323 -4 -343 -22 -12 -11 -21 -24 -21 -30 0 -6 26 -40 58 -76 l57 -66 58 -257
c37 -162 56 -265 51 -279 -4 -13 -21 -54 -39 -93 -35 -76 -133 -293 -227 -505
-33 -74 -100 -223 -148 -330 -79 -174 -187 -415 -360 -803 -32 -70 -60 -130
-63 -133 -2 -3 -12 23 -21 58 -11 43 -21 161 -31 378 -26 573 -54 1162 -65
1360 -5 107 -8 209 -5 226 2 17 52 108 112 202 59 93 125 198 146 231 35 57
43 64 120 100 l83 38 -1 88 c-1 64 -5 89 -16 95 -12 7 -172 118 -479 331 -40
28 -103 54 -225 94 -94 30 -171 55 -173 55 -6 0 -52 -110 -52 -124 0 -7 14
-32 31 -56 29 -40 33 -57 65 -274 18 -127 34 -245 34 -263 0 -22 -44 -108
-157 -305 -86 -150 -164 -286 -174 -303 -11 -16 -22 -37 -26 -45 -11 -25 -106
-193 -453 -800 -42 -74 -92 -162 -110 -195 -47 -86 -50 -89 -69 -70 -11 11
-16 42 -19 113 -4 104 29 1046 53 1507 8 154 15 287 15 295 0 9 48 74 108 147
59 72 139 169 177 216 63 78 74 87 111 93 36 5 47 13 83 62 23 31 40 63 39 70
-2 7 -39 28 -83 47 -94 41 -306 167 -396 236 -36 27 -75 48 -89 49 -15 0 -75
-32 -149 -80z"/>
<path d="M7060 5757 c0 -8 -21 -46 -47 -87 l-47 -73 33 -26 c25 -21 37 -44 57
-111 34 -118 80 -309 100 -417 15 -86 15 -94 -1 -143 -9 -28 -15 -53 -13 -56
7 -7 383 397 383 411 0 7 -91 113 -202 236 -111 123 -212 236 -225 252 -26 30
-38 34 -38 14z"/>
<path d="M7676 2108 c-26 -118 -139 -479 -192 -617 -98 -250 -268 -567 -352
-654 -118 -123 -381 -295 -932 -612 -190 -109 -347 -199 -349 -201 -2 -2 414
-4 926 -4 l931 0 82 177 c76 164 82 180 76 223 -5 36 -1 58 15 94 24 56 19 98
-18 132 l-24 22 20 138 c37 255 44 414 37 813 -3 207 -9 398 -14 425 l-7 49
-39 -58 -39 -59 -15 23 c-9 13 -28 60 -42 104 -15 45 -31 82 -36 84 -5 2 -17
-34 -28 -79z"/>
</g>
</svg>
